<svg width="121" height="103" viewBox="0 0 121 103" fill="none" xmlns="http://www.w3.org/2000/svg">
<rect width="121" height="103" fill="#D8E6F7"/>
<path d="M52.9375 75.1042H68.0625V64.375H80.6666V51.5H68.0625V40.7708H52.9375V51.5H40.3333V64.375H52.9375V75.1042ZM35.2916 90.125C32.5187 90.125 30.1449 89.2846 28.1703 87.6036C26.1956 85.9227 25.2083 83.9021 25.2083 81.5417V34.3333C25.2083 31.9729 26.1956 29.9523 28.1703 28.2714C30.1449 26.5905 32.5187 25.75 35.2916 25.75H85.7083C88.4812 25.75 90.855 26.5905 92.8297 28.2714C94.8043 29.9523 95.7916 31.9729 95.7916 34.3333V81.5417C95.7916 83.9021 94.8043 85.9227 92.8297 87.6036C90.855 89.2846 88.4812 90.125 85.7083 90.125H35.2916ZM35.2916 81.5417H85.7083V34.3333H35.2916V81.5417ZM30.25 21.4583V12.875H90.75V21.4583H30.25Z" fill="#1E5CB3"/>
</svg>
