<svg width="45" height="45" viewBox="0 0 45 45" fill="none" xmlns="http://www.w3.org/2000/svg">
<path d="M11.25 41.25C10.2188 41.25 9.33594 40.8828 8.60156 40.1484C7.86719 39.4141 7.5 38.5312 7.5 37.5V18.75C7.5 17.7188 7.86719 16.8359 8.60156 16.1016C9.33594 15.3672 10.2188 15 11.25 15H13.125V11.25C13.125 8.65625 14.0391 6.44531 15.8672 4.61719C17.6953 2.78906 19.9062 1.875 22.5 1.875C25.0938 1.875 27.3047 2.78906 29.1328 4.61719C30.9609 6.44531 31.875 8.65625 31.875 11.25V15H33.75C34.7812 15 35.6641 15.3672 36.3984 16.1016C37.1328 16.8359 37.5 17.7188 37.5 18.75V37.5C37.5 38.5312 37.1328 39.4141 36.3984 40.1484C35.6641 40.8828 34.7812 41.25 33.75 41.25H11.25ZM11.25 37.5H33.75V18.75H11.25V37.5ZM25.1484 30.7734C25.8828 30.0391 26.25 29.1562 26.25 28.125C26.25 27.0938 25.8828 26.2109 25.1484 25.4766C24.4141 24.7422 23.5312 24.375 22.5 24.375C21.4688 24.375 20.5859 24.7422 19.8516 25.4766C19.1172 26.2109 18.75 27.0938 18.75 28.125C18.75 29.1562 19.1172 30.0391 19.8516 30.7734C20.5859 31.5078 21.4688 31.875 22.5 31.875C23.5312 31.875 24.4141 31.5078 25.1484 30.7734ZM16.875 15H28.125V11.25C28.125 9.6875 27.5781 8.35938 26.4844 7.26562C25.3906 6.17188 24.0625 5.625 22.5 5.625C20.9375 5.625 19.6094 6.17188 18.5156 7.26562C17.4219 8.35938 16.875 9.6875 16.875 11.25V15Z" fill="#A6A3A3"/>
</svg>
