<svg width="93" height="96" viewBox="0 0 93 96" fill="none" xmlns="http://www.w3.org/2000/svg">
<path d="M33.4219 84C27.351 84 22.2005 81.8167 17.9703 77.45C13.7401 73.0833 11.625 67.7667 11.625 61.5C11.625 58.5 12.174 55.6333 13.2719 52.9C14.3698 50.1667 15.9521 47.7333 18.0187 45.6L44.175 18.6C46.2417 16.4667 48.599 14.8333 51.2469 13.7C53.8948 12.5667 56.6719 12 59.5781 12C65.649 12 70.7995 14.1833 75.0297 18.55C79.2599 22.9167 81.375 28.2333 81.375 34.5C81.375 37.5 80.826 40.3667 79.7281 43.1C78.6302 45.8333 77.0479 48.2667 74.9812 50.4L48.825 77.4C46.7583 79.5333 44.401 81.1667 41.7531 82.3C39.1052 83.4333 36.3281 84 33.4219 84ZM59.1906 55.4L69.5562 44.8C70.8479 43.4667 71.849 41.9 72.5594 40.1C73.2698 38.3 73.625 36.4333 73.625 34.5C73.625 30.5 72.2526 27.0833 69.5078 24.25C66.763 21.4167 63.4531 20 59.5781 20C57.7052 20 55.8969 20.3667 54.1531 21.1C52.4094 21.8333 50.8917 22.8667 49.6 24.2L39.3312 34.9L59.1906 55.4ZM33.4219 76C35.2948 76 37.1031 75.6333 38.8469 74.9C40.5906 74.1667 42.1083 73.1333 43.4 71.8L53.6687 61.1L33.8094 40.6L23.4437 51.2C22.1521 52.5333 21.151 54.1 20.4406 55.9C19.7302 57.7 19.375 59.5667 19.375 61.5C19.375 65.5 20.7474 68.9167 23.4922 71.75C26.237 74.5833 29.5469 76 33.4219 76Z" fill="#1E5CB3"/>
</svg>
