<svg width="40" height="40" viewBox="0 0 40 40" fill="none" xmlns="http://www.w3.org/2000/svg">
<path d="M9.75004 28.5C11.1667 27.4167 12.75 26.5625 14.5 25.9375C16.25 25.3125 18.0834 25 20 25C21.9167 25 23.75 25.3125 25.5 25.9375C27.25 26.5625 28.8334 27.4167 30.25 28.5C31.2223 27.3611 31.9792 26.0694 32.5209 24.625C33.0625 23.1806 33.3334 21.6389 33.3334 20C33.3334 16.3056 32.0348 13.1597 29.4375 10.5625C26.8403 7.96528 23.6945 6.66667 20 6.66667C16.3056 6.66667 13.1598 7.96528 10.5625 10.5625C7.96532 13.1597 6.66671 16.3056 6.66671 20C6.66671 21.6389 6.93754 23.1806 7.47921 24.625C8.02087 26.0694 8.77782 27.3611 9.75004 28.5ZM15.8542 19.9792C14.7292 18.8542 14.1667 17.4722 14.1667 15.8333C14.1667 14.1944 14.7292 12.8125 15.8542 11.6875C16.9792 10.5625 18.3612 10 20 10C21.6389 10 23.0209 10.5625 24.1459 11.6875C25.2709 12.8125 25.8334 14.1944 25.8334 15.8333C25.8334 17.4722 25.2709 18.8542 24.1459 19.9792C23.0209 21.1042 21.6389 21.6667 20 21.6667C18.3612 21.6667 16.9792 21.1042 15.8542 19.9792ZM20 36.6667C17.6945 36.6667 15.5278 36.2292 13.5 35.3542C11.4723 34.4792 9.70837 33.2917 8.20837 31.7917C6.70837 30.2917 5.52087 28.5278 4.64587 26.5C3.77087 24.4722 3.33337 22.3056 3.33337 20C3.33337 17.6944 3.77087 15.5278 4.64587 13.5C5.52087 11.4722 6.70837 9.70833 8.20837 8.20833C9.70837 6.70833 11.4723 5.52083 13.5 4.64583C15.5278 3.77083 17.6945 3.33333 20 3.33333C22.3056 3.33333 24.4723 3.77083 26.5 4.64583C28.5278 5.52083 30.2917 6.70833 31.7917 8.20833C33.2917 9.70833 34.4792 11.4722 35.3542 13.5C36.2292 15.5278 36.6667 17.6944 36.6667 20C36.6667 22.3056 36.2292 24.4722 35.3542 26.5C34.4792 28.5278 33.2917 30.2917 31.7917 31.7917C30.2917 33.2917 28.5278 34.4792 26.5 35.3542C24.4723 36.2292 22.3056 36.6667 20 36.6667ZM24.1667 32.6875C25.4723 32.2569 26.6667 31.6389 27.75 30.8333C26.6667 30.0278 25.4723 29.4097 24.1667 28.9792C22.8612 28.5486 21.4723 28.3333 20 28.3333C18.5278 28.3333 17.1389 28.5486 15.8334 28.9792C14.5278 29.4097 13.3334 30.0278 12.25 30.8333C13.3334 31.6389 14.5278 32.2569 15.8334 32.6875C17.1389 33.1181 18.5278 33.3333 20 33.3333C21.4723 33.3333 22.8612 33.1181 24.1667 32.6875ZM21.7917 17.625C22.2639 17.1528 22.5 16.5556 22.5 15.8333C22.5 15.1111 22.2639 14.5139 21.7917 14.0417C21.3195 13.5694 20.7223 13.3333 20 13.3333C19.2778 13.3333 18.6806 13.5694 18.2084 14.0417C17.7362 14.5139 17.5 15.1111 17.5 15.8333C17.5 16.5556 17.7362 17.1528 18.2084 17.625C18.6806 18.0972 19.2778 18.3333 20 18.3333C20.7223 18.3333 21.3195 18.0972 21.7917 17.625Z" fill="black"/>
</svg>
